<svg xmlns="http://www.w3.org/2000/svg" viewBox="0 0 312.34 266.5"><defs><style>.cls-1{fill:#528ff8;}.cls-1,.cls-2,.cls-3,.cls-4{stroke:#000;stroke-linecap:round;stroke-linejoin:bevel;stroke-width:16.9px;}.cls-2{fill:#7ad181;}.cls-3{fill:#fa3913;}.cls-4{fill:#38b137;}</style></defs><title>资源 1</title><g id="图层_2" data-name="图层 2"><g id="图层_1-2" data-name="图层 1"><path class="cls-1" d="M21.82,19h80.3q-.53,8.17-.94,16.21T100,51.43h0L63.1,53.35v11H95.16l-1.75,27-30.47.86.16,51.57L19,144.63ZM171,19.9l34,117.24-43.2,5.58L156.58,123H136.7l-4.34,19.7-44.42-4.36,34.66-116ZM140.36,96.38h13.08l-6.62-30.32ZM263.71,19.9l40.06,2.61L271.9,143.76l-43.2,2.44L189.49,23.73l41.28-3.83L247.5,91.33Z"/><path class="cls-2" d="M16.53,13.74H96.84q-.54,8.19-1,16.21T94.74,46.14h0L57.81,48.06V59H89.87L88.12,86l-30.47.86.16,51.57-44.07.87Zm149.2.87,34,117.24-43.2,5.58-5.21-19.7H131.41l-4.34,19.7-44.42-4.36,34.66-116ZM135.08,91.09h13.07l-6.62-30.32ZM258.42,14.61l40.06,2.61L266.61,138.47l-43.2,2.44L184.2,18.44l41.29-3.83L242.21,86Z"/><path class="cls-3" d="M11.24,8.45H91.55q-.52,8.19-1,16.21T89.45,40.85h0L52.52,42.77v11H84.58l-1.75,27-30.47.86.16,51.57-44.07.87Zm149.2.88,34,117.23-43.2,5.58L146,112.45H126.12l-4.34,19.69-44.42-4.36L112,11.77ZM129.79,85.8h13.07l-6.62-30.32ZM253.13,9.33l40.06,2.6L261.32,133.18l-43.2,2.44L178.91,13.15,220.2,9.33l16.72,71.42Z"/><path class="cls-1" d="M19.16,167.56l35.25-1.87-7.3,90.23-27.95,1.46Zm104.74-1.74h0l-3.71,28a22.72,22.72,0,0,0-3.85-.74,38,38,0,0,0-3.84-.19h0a33.11,33.11,0,0,0-9.35,1.3,22.91,22.91,0,0,0-7.85,3.93,19.56,19.56,0,0,0-5.43,6.63,20.43,20.43,0,0,0-2,9.33h0A14.9,14.9,0,0,0,89,220,11.14,11.14,0,0,0,92,224.19a12.79,12.79,0,0,0,4.7,2.46,21.27,21.27,0,0,0,6,.79h0a26.15,26.15,0,0,0,5.1-.53,46.14,46.14,0,0,0,5.25-1.39,49.91,49.91,0,0,0,5-2q2.46-1.14,4.51-2.31h0l-2.64,31.12a42.06,42.06,0,0,1-5.6,2.37q-3,1-6.21,1.79a58.34,58.34,0,0,1-6.35,1.14,48.32,48.32,0,0,1-6.1.41h0a39.58,39.58,0,0,1-28.35-11.66,40,40,0,0,1-8.44-12.82,40.88,40.88,0,0,1-3.09-15.94h0A69.22,69.22,0,0,1,59,196.26a52.06,52.06,0,0,1,9.54-17.58,44.82,44.82,0,0,1,15.6-11.94,50.11,50.11,0,0,1,21.43-4.36h0a63.36,63.36,0,0,1,9.39.72A31.59,31.59,0,0,1,123.9,165.82Zm85.26,46.38h0a48.33,48.33,0,0,1-1.38,11.62,46.45,46.45,0,0,1-4,10.51,43.9,43.9,0,0,1-6.37,9,40.21,40.21,0,0,1-8.41,7,40.67,40.67,0,0,1-21.83,6.17h0a41.44,41.44,0,0,1-11.36-1.53,42.65,42.65,0,0,1-10.1-4.27,40.3,40.3,0,0,1-8.52-6.63,41.18,41.18,0,0,1-6.48-8.61,43.33,43.33,0,0,1-4.18-10.18A42.3,42.3,0,0,1,125,213.92h0a46.05,46.05,0,0,1,5.39-21.72,44.81,44.81,0,0,1,6.34-9,41.94,41.94,0,0,1,8.31-7.09,40.17,40.17,0,0,1,10-4.64,38,38,0,0,1,11.33-1.66h0a49.42,49.42,0,0,1,17.53,3,37.22,37.22,0,0,1,22.18,21.89A47.54,47.54,0,0,1,209.16,212.2Zm-29.42,1.72h0a18.91,18.91,0,0,0-.81-5.52,15.32,15.32,0,0,0-2.42-4.79,12.34,12.34,0,0,0-4-3.38,11.09,11.09,0,0,0-5.39-1.27h0a13.15,13.15,0,0,0-5.56,1.12,13,13,0,0,0-4.21,3.07,13.6,13.6,0,0,0-2.68,4.58,16.33,16.33,0,0,0-.92,5.53h0a20.25,20.25,0,0,0,.79,5.57,16.53,16.53,0,0,0,2.38,5,12.68,12.68,0,0,0,3.94,3.64,10.47,10.47,0,0,0,5.47,1.4h0a12.25,12.25,0,0,0,5.59-1.24,12.42,12.42,0,0,0,4.21-3.3,15.2,15.2,0,0,0,2.65-4.81A17.48,17.48,0,0,0,179.74,213.92ZM272.63,165,303.91,164l-4.77,89.83L264.41,257,245.87,208.9l-2.92,49H213.14l2.38-94,33.14-1.59,22.9,47.7Z"/><path class="cls-2" d="M13.81,162.2l35.24-1.87-7.3,90.24L13.81,252Zm104.73-1.74h0l-3.71,28a23.64,23.64,0,0,0-3.84-.74c-1.28-.12-2.56-.18-3.85-.18h0a33.4,33.4,0,0,0-9.34,1.29A23,23,0,0,0,90,192.73a19.33,19.33,0,0,0-5.43,6.63,20.3,20.3,0,0,0-2,9.33h0a15,15,0,0,0,1.09,6,11.08,11.08,0,0,0,3.09,4.17,12.75,12.75,0,0,0,4.69,2.46,21.29,21.29,0,0,0,6,.79h0a25.38,25.38,0,0,0,5.09-.53,45.06,45.06,0,0,0,5.25-1.39,49.91,49.91,0,0,0,5-2c1.64-.75,3.15-1.52,4.51-2.31h0L114.57,247a41.5,41.5,0,0,1-5.6,2.37c-2,.68-4.07,1.27-6.2,1.79a56.64,56.64,0,0,1-6.36,1.15,48.21,48.21,0,0,1-6.09.4h0A39.67,39.67,0,0,1,62,241a40.44,40.44,0,0,1-8.44-12.82,40.91,40.91,0,0,1-3.08-15.94h0a69,69,0,0,1,3.25-21.38,52.06,52.06,0,0,1,9.53-17.58,44.71,44.71,0,0,1,15.61-11.93A49.91,49.91,0,0,1,100.25,157h0a63.26,63.26,0,0,1,9.39.72A31.16,31.16,0,0,1,118.54,160.46Zm85.27,46.39h0a47.81,47.81,0,0,1-1.39,11.61,45.8,45.8,0,0,1-4,10.51,43.25,43.25,0,0,1-6.37,9,40.41,40.41,0,0,1-8.4,7,40.74,40.74,0,0,1-21.84,6.17h0a41.5,41.5,0,0,1-11.36-1.53,42.83,42.83,0,0,1-10.1-4.27,40.3,40.3,0,0,1-8.52-6.63,41.35,41.35,0,0,1-6.48-8.61,43.43,43.43,0,0,1-4.18-10.17,42.78,42.78,0,0,1-1.49-11.33h0a46.13,46.13,0,0,1,5.39-21.72,44.46,44.46,0,0,1,6.34-9,42,42,0,0,1,8.31-7.1,39.86,39.86,0,0,1,10-4.63A37.9,37.9,0,0,1,161,164.43h0a49.16,49.16,0,0,1,17.53,3,37.15,37.15,0,0,1,22.18,21.89A47.46,47.46,0,0,1,203.81,206.85Zm-29.43,1.71h0a19,19,0,0,0-.81-5.52,15.06,15.06,0,0,0-2.42-4.78,12.28,12.28,0,0,0-4-3.38,11.16,11.16,0,0,0-5.4-1.28h0a13.15,13.15,0,0,0-5.56,1.13,12.9,12.9,0,0,0-4.21,3.06,13.64,13.64,0,0,0-2.68,4.59,16.48,16.48,0,0,0-.92,5.52h0a20.27,20.27,0,0,0,.79,5.58,16.61,16.61,0,0,0,2.39,5,12.64,12.64,0,0,0,3.93,3.64,10.4,10.4,0,0,0,5.47,1.4h0a12.42,12.42,0,0,0,5.6-1.23,12.67,12.67,0,0,0,4.21-3.31,15.32,15.32,0,0,0,2.64-4.8A17.54,17.54,0,0,0,174.38,208.56Zm92.9-48.89,31.27-1-4.77,89.82-34.72,3.18-18.55-48.08-2.92,49H207.78l2.38-93.94L243.3,157l22.91,47.69Z"/><path class="cls-4" d="M8.45,156.84,43.69,155,36.4,245.21,8.45,246.67Zm104.74-1.73h0l-3.72,28a23.64,23.64,0,0,0-3.84-.74q-1.92-.18-3.84-.18h0a33.42,33.42,0,0,0-9.35,1.29,22.93,22.93,0,0,0-7.85,3.94A19.33,19.33,0,0,0,79.16,194a20.4,20.4,0,0,0-2,9.33h0a14.82,14.82,0,0,0,1.09,6,11,11,0,0,0,3.08,4.18A12.88,12.88,0,0,0,86,215.93a21.33,21.33,0,0,0,6,.8h0a25.44,25.44,0,0,0,5.1-.54,47.52,47.52,0,0,0,5.24-1.38,50.14,50.14,0,0,0,5-2q2.46-1.12,4.51-2.31h0l-2.65,31.13a43.25,43.25,0,0,1-5.59,2.36q-3,1-6.21,1.79a56.89,56.89,0,0,1-6.35,1.15,48.32,48.32,0,0,1-6.1.41h0a39.69,39.69,0,0,1-28.35-11.66,40.18,40.18,0,0,1-8.45-12.82,41.09,41.09,0,0,1-3.08-15.94h0a68.92,68.92,0,0,1,3.25-21.37A52.18,52.18,0,0,1,57.86,168,45,45,0,0,1,73.47,156a50,50,0,0,1,21.43-4.36h0a63.23,63.23,0,0,1,9.38.72A31.33,31.33,0,0,1,113.19,155.11Zm85.26,46.38h0a48.39,48.39,0,0,1-1.38,11.62,47.11,47.11,0,0,1-4,10.51,43.88,43.88,0,0,1-6.38,9,40.25,40.25,0,0,1-8.4,7,41.21,41.21,0,0,1-10.18,4.54,40.6,40.6,0,0,1-11.65,1.63h0a41,41,0,0,1-11.36-1.54A43.12,43.12,0,0,1,135,240a40.65,40.65,0,0,1-8.51-6.63,41.58,41.58,0,0,1-6.49-8.61,43.23,43.23,0,0,1-4.17-10.18,42.36,42.36,0,0,1-1.5-11.32h0a46.3,46.3,0,0,1,5.4-21.73,44.69,44.69,0,0,1,6.33-9,42.52,42.52,0,0,1,8.31-7.09,40,40,0,0,1,10-4.64,37.9,37.9,0,0,1,11.32-1.66h0a49.12,49.12,0,0,1,17.53,3A37.27,37.27,0,0,1,195.37,184,47.71,47.71,0,0,1,198.45,201.49ZM169,203.21h0a19,19,0,0,0-.82-5.53,15.17,15.17,0,0,0-2.42-4.78,12.3,12.3,0,0,0-3.95-3.38,11.1,11.1,0,0,0-5.39-1.28h0a13.08,13.08,0,0,0-5.56,1.13,12.72,12.72,0,0,0-4.22,3.07A13.32,13.32,0,0,0,144,197a16.28,16.28,0,0,0-.93,5.52h0a20.29,20.29,0,0,0,.8,5.58,16.48,16.48,0,0,0,2.38,5,12.52,12.52,0,0,0,3.93,3.64,10.43,10.43,0,0,0,5.47,1.41h0a12.47,12.47,0,0,0,9.81-4.55,14.93,14.93,0,0,0,2.64-4.8A17.27,17.27,0,0,0,169,203.21Zm92.89-48.9,31.27-1.05-4.76,89.83-34.73,3.17-18.55-48.08-2.91,49H202.42l2.39-94,33.13-1.59,22.91,47.69Z"/></g></g></svg>